<mxfile host="65bd71144e" modified="2020-10-06T04:01:35.178Z" agent="5.0 (Macintosh; Intel Mac OS X 10_15_5) AppleWebKit/537.36 (KHTML, like Gecko) Code/1.49.3 Chrome/83.0.4103.122 Electron/9.2.1 Safari/537.36" version="13.6.5" etag="oUC-d-NGIDQdSv3HqEdh">
    <diagram id="f0nxM0to4TduEtXtiT6N" name="Page-1">
        <mxGraphModel dx="526" dy="560" grid="1" gridSize="10" guides="1" tooltips="1" connect="1" arrows="1" fold="1" page="1" pageScale="1" pageWidth="850" pageHeight="1100" math="0" shadow="0">
            <root>
                <mxCell id="0"/>
                <mxCell id="1" parent="0"/>
                <mxCell id="2" value="Problem domain max Val&lt;br&gt;&lt;br&gt;Given a binary search tree, return the max value in the tree&lt;br&gt;&lt;br&gt;input: binary search tree&lt;br&gt;output: the maximum value that is present in the tree" style="text;html=1;strokeColor=none;fillColor=none;align=left;verticalAlign=middle;whiteSpace=wrap;rounded=0;" vertex="1" parent="1">
                    <mxGeometry x="10" y="20" width="150" height="130" as="geometry"/>
                </mxCell>
                <mxCell id="3" value="Algorithm:&lt;br&gt;Whe" style="text;html=1;strokeColor=none;fillColor=none;align=left;verticalAlign=middle;whiteSpace=wrap;rounded=0;" vertex="1" parent="1">
                    <mxGeometry x="10" y="160" width="150" height="130" as="geometry"/>
                </mxCell>
            </root>
        </mxGraphModel>
    </diagram>
</mxfile>